<svg xmlns="http://www.w3.org/2000/svg" width="87.7" height="87.7" viewBox="0 0 87.7 87.7">
  <g id="Group_32" data-name="Group 32" transform="translate(-221 -139)">
    <circle id="Ellipse_3" data-name="Ellipse 3" cx="43.85" cy="43.85" r="43.85" transform="translate(221 139)" fill="#017cfd"/>
    <g id="Group_26" data-name="Group 26" transform="translate(-375.92 -698.161)">
      <path id="Path_10" data-name="Path 10" d="M640.908,901.165q-9.878,0-19.756,0a5.034,5.034,0,0,1-4.225-2.047,4.817,4.817,0,0,1-1.008-3.014c.007-2.308,0-4.617,0-6.925q0-7.635,0-15.27a5.034,5.034,0,0,1,5.251-5.245c1.835,0,3.67,0,5.505,0a2.271,2.271,0,0,0,2.278-1.626c.48-1.414.948-2.832,1.425-4.248a2.271,2.271,0,0,1,2.271-1.638q8.257,0,16.515,0a2.275,2.275,0,0,1,2.3,1.661c.467,1.387.929,2.777,1.4,4.164a2.3,2.3,0,0,0,2.369,1.687c1.835,0,3.67,0,5.505,0a5.024,5.024,0,0,1,5.182,5.18q0,11.053,0,22.106a5.048,5.048,0,0,1-5.21,5.21Q650.808,901.172,640.908,901.165Zm.016-5.014a12.492,12.492,0,1,0-12.495-12.477A12.506,12.506,0,0,0,640.924,896.151Zm18.238-19.007a1.742,1.742,0,1,0-1.741-1.758A1.757,1.757,0,0,0,659.162,877.144Z" transform="translate(0 0)" fill="#f2f8ff"/>
      <g id="Group_25" data-name="Group 25" transform="translate(633.673 876.367)">
        <path id="Path_11" data-name="Path 11" d="M702.4,928.836a7.494,7.494,0,1,0,7.5,7.518A7.514,7.514,0,0,0,702.4,928.836Zm2.91,8.375h-2.1V939.5h-1.644v-2.291h-2.078v-1.787h2.078v-2.266h1.644v2.266h2.1Z" transform="translate(-694.896 -928.836)" fill="#f2f8ff"/>
      </g>
    </g>
  </g>
</svg>
