<svg xmlns="http://www.w3.org/2000/svg" width="36" height="36" viewBox="0 0 36 36">
  <g id="Group_124" data-name="Group 124" transform="translate(-298 -702)">
    <circle id="Ellipse_23" data-name="Ellipse 23" cx="18" cy="18" r="18" transform="translate(298 702)" fill="#017cfd"/>
    <g id="Group_123" data-name="Group 123" transform="translate(305.457 711.269)">
      <path id="Path_238" data-name="Path 238" d="M197.509,981.418l-2.863-3.609h1.7a6.719,6.719,0,0,0-7.4-6.73,6.638,6.638,0,0,0-4.156,2.025l-1.621-1.638a8.752,8.752,0,0,1,2.7-1.918,8.966,8.966,0,0,1,9.3,1.091,9.084,9.084,0,0,1,3.485,7.162h1.731Z" transform="translate(-178.883 -968.72)" fill="#f2f8ff"/>
      <path id="Path_239" data-name="Path 239" d="M176.395,983.176h-1.717l2.87-3.611,2.862,3.607h-1.692a6.71,6.71,0,0,0,11.4,4.86l1.613,1.634a8.973,8.973,0,0,1-13.525-1.053A9.066,9.066,0,0,1,176.395,983.176Z" transform="translate(-174.678 -974.091)" fill="#f2f8ff"/>
    </g>
  </g>
</svg>
