<svg xmlns="http://www.w3.org/2000/svg" width="22.982" height="22.493" viewBox="0 0 22.982 22.493">
  <g id="Group_24" data-name="Group 24" transform="translate(-935.206 -1369.058)">
    <g id="Group_21" data-name="Group 21" transform="translate(935.206 1369.058)">
      <path id="Path_7" data-name="Path 7" d="M948.1,1391.551h-9.033a3.827,3.827,0,0,1-3.861-3.782v-14.929a3.827,3.827,0,0,1,3.861-3.782H948.1a3.827,3.827,0,0,1,3.862,3.782,1.125,1.125,0,0,1-2.249,0,1.576,1.576,0,0,0-1.613-1.532h-9.033a1.575,1.575,0,0,0-1.612,1.532v14.929a1.576,1.576,0,0,0,1.612,1.533H948.1a1.576,1.576,0,0,0,1.613-1.533,1.125,1.125,0,0,1,2.249,0A3.827,3.827,0,0,1,948.1,1391.551Z" transform="translate(-935.206 -1369.058)" fill="#000d28"/>
    </g>
    <g id="Group_22" data-name="Group 22" transform="translate(947.637 1379.388)">
      <path id="Path_8" data-name="Path 8" d="M965.273,1389.677h-6.835a1.125,1.125,0,1,1,0-2.249h6.835a1.125,1.125,0,1,1,0,2.249Z" transform="translate(-957.313 -1387.428)" fill="#000d28"/>
    </g>
    <g id="Group_23" data-name="Group 23" transform="translate(951.374 1375.575)">
      <path id="Path_9" data-name="Path 9" d="M965.375,1390.522a1.125,1.125,0,0,1-.8-1.918l2.967-2.981-3.23-3.03a1.125,1.125,0,1,1,1.538-1.641l4.92,4.615-4.6,4.624A1.12,1.12,0,0,1,965.375,1390.522Z" transform="translate(-963.959 -1380.647)" fill="#000d28"/>
    </g>
  </g>
</svg>
