<svg xmlns="http://www.w3.org/2000/svg" width="87.699" height="87.699" viewBox="0 0 87.699 87.699">
  <g id="Group_10" data-name="Group 10" transform="translate(-1038.485 -1676.653)">
    <g id="Group_9" data-name="Group 9" transform="translate(1038.485 1676.653)">
      <path id="Path_5" data-name="Path 5" d="M1082.335,1724.5a34.693,34.693,0,0,1,33.2,24.643,43.85,43.85,0,1,0-66.406,0A34.694,34.694,0,0,1,1082.335,1724.5Z" transform="translate(-1038.485 -1676.653)" fill="#017cfd"/>
      <path id="Path_6" data-name="Path 6" d="M1099.209,1840.187a43.748,43.748,0,0,0,33.2-15.208,34.689,34.689,0,0,0-66.405,0A43.748,43.748,0,0,0,1099.209,1840.187Z" transform="translate(-1055.359 -1752.488)" fill="#f2f8ff"/>
    </g>
    <circle id="Ellipse_2" data-name="Ellipse 2" cx="14.892" cy="14.892" r="14.892" transform="translate(1067.442 1690.994)" fill="#f2f8ff"/>
  </g>
</svg>
