<svg xmlns="http://www.w3.org/2000/svg" width="104.077" height="31.213" viewBox="0 0 104.077 31.213">
  <g id="Group_31" data-name="Group 31" transform="translate(-270.528 -234.318)">
    <g id="Group_28" data-name="Group 28" transform="translate(305.828 234.318)">
      <path id="Path_13" data-name="Path 13" d="M351.321,248.444h-2.759v-13.6h2.759v5.978l1.839-.2,2.24-5.778h3.139l-2.959,6.818,3.039,6.778H355.44l-2.279-5.418-1.839.2Z" transform="translate(-348.562 -234.608)" fill="#017cfc"/>
      <path id="Path_14" data-name="Path 14" d="M372.251,248.444l3.059-13.6h5.238l3.059,13.6h-2.759l-.54-2.459H375.55l-.54,2.459Zm5.2-11.316-1.38,6.458h3.719l-1.38-6.458Z" transform="translate(-361.535 -234.608)" fill="#017cfc"/>
      <path id="Path_15" data-name="Path 15" d="M397.047,237.288v-2.44h10v2.44h-3.6v11.156h-2.759V237.288Z" transform="translate(-375.114 -234.608)" fill="#017cfc"/>
      <path id="Path_16" data-name="Path 16" d="M418.836,248.444l3.059-13.6h5.238l3.06,13.6h-2.759l-.54-2.459h-4.758l-.54,2.459Zm5.2-11.316-1.38,6.458h3.719l-1.379-6.458Z" transform="translate(-387.047 -234.608)" fill="#017cfc"/>
      <path id="Path_17" data-name="Path 17" d="M455.7,248.444h-7.738v-13.6h2.759V246H455.7Z" transform="translate(-402.998 -234.608)" fill="#017cfc"/>
      <path id="Path_18" data-name="Path 18" d="M468.824,248.444v-13.6h2.759v13.6Z" transform="translate(-414.422 -234.608)" fill="#017cfc"/>
      <path id="Path_19" data-name="Path 19" d="M484.748,236.717q-2.179,0-2.179,1.439a1.089,1.089,0,0,0,.54.979,13.963,13.963,0,0,0,2.529.98,6.989,6.989,0,0,1,2.789,1.449,3.42,3.42,0,0,1,.8,2.489,4.006,4.006,0,0,1-1.3,3.239,5.084,5.084,0,0,1-3.4,1.1,18.922,18.922,0,0,1-3.819-.48l-.72-.14.28-2.14a33.244,33.244,0,0,0,4.1.36q2.119,0,2.119-1.76a1.172,1.172,0,0,0-.49-1,6.941,6.941,0,0,0-1.949-.779,7.949,7.949,0,0,1-3.269-1.569,3.338,3.338,0,0,1-.95-2.53,3.671,3.671,0,0,1,1.24-3.039,5.267,5.267,0,0,1,3.4-1,22.605,22.605,0,0,1,3.759.4l.72.14-.22,2.179Q485.907,236.718,484.748,236.717Z" transform="translate(-420.449 -234.318)" fill="#017cfc"/>
      <path id="Path_20" data-name="Path 20" d="M353.56,282.37h-2.239v3.959h-2.759v-13.6h5q4.839,0,4.838,4.718a5.033,5.033,0,0,1-1.23,3.649A4.8,4.8,0,0,1,353.56,282.37Zm-2.239-2.359h2.219q2.059,0,2.06-2.559a2.658,2.658,0,0,0-.5-1.809,2.01,2.01,0,0,0-1.559-.549h-2.219Z" transform="translate(-348.562 -255.356)" fill="#017cfc"/>
      <path id="Path_21" data-name="Path 21" d="M382.411,286.329v-5.638h-5.058v5.638h-2.759v-13.6h2.759v5.558h5.058v-5.558h2.759v13.6Z" transform="translate(-362.818 -255.356)" fill="#017cfc"/>
      <path id="Path_22" data-name="Path 22" d="M413.2,284.588q-1.27,1.69-4.368,1.69t-4.368-1.69q-1.27-1.69-1.27-5.288a9.13,9.13,0,0,1,1.27-5.348q1.27-1.749,4.368-1.75t4.368,1.75a9.134,9.134,0,0,1,1.27,5.348Q414.467,282.9,413.2,284.588Zm-6.578-1.759a2.85,2.85,0,0,0,4.419,0,7.649,7.649,0,0,0,.589-3.519,8.016,8.016,0,0,0-.6-3.589,2.72,2.72,0,0,0-4.4,0,8.008,8.008,0,0,0-.6,3.589A7.643,7.643,0,0,0,406.619,282.829Z" transform="translate(-378.478 -255.065)" fill="#017cfc"/>
      <path id="Path_23" data-name="Path 23" d="M430.328,275.172v-2.439h10v2.439h-3.6v11.157h-2.759V275.172Z" transform="translate(-393.34 -255.356)" fill="#017cfc"/>
      <path id="Path_24" data-name="Path 24" d="M464.687,284.588q-1.27,1.69-4.368,1.69t-4.369-1.69q-1.27-1.69-1.27-5.288a9.134,9.134,0,0,1,1.27-5.348q1.27-1.749,4.369-1.75t4.368,1.75a9.134,9.134,0,0,1,1.27,5.348Q465.957,282.9,464.687,284.588Zm-6.578-1.759a2.85,2.85,0,0,0,4.419,0,7.654,7.654,0,0,0,.59-3.519,8,8,0,0,0-.6-3.589,2.72,2.72,0,0,0-4.4,0,8.006,8.006,0,0,0-.6,3.589A7.641,7.641,0,0,0,458.109,282.829Z" transform="translate(-406.676 -255.065)" fill="#017cfc"/>
    </g>
    <g id="Group_30" data-name="Group 30" transform="translate(270.528 234.318)">
      <path id="Path_25" data-name="Path 25" d="M291.257,245.086a9.961,9.961,0,1,1-9.961,9.961,9.961,9.961,0,0,1,9.961-9.961m0-1.415a11.376,11.376,0,1,0,11.376,11.375,11.388,11.388,0,0,0-11.376-11.375Z" transform="translate(-275.65 -239.44)" fill="#017cfc"/>
      <path id="Path_26" data-name="Path 26" d="M286.135,236.259a13.665,13.665,0,1,1-13.665,13.665,13.665,13.665,0,0,1,13.665-13.665m0-1.941a15.606,15.606,0,1,0,15.606,15.606,15.624,15.624,0,0,0-15.606-15.606Z" transform="translate(-270.528 -234.318)" fill="#017cfc"/>
      <g id="Group_29" data-name="Group 29" transform="translate(8.266 8.598)">
        <path id="Path_27" data-name="Path 27" d="M301.039,261.746c-.068-.018-.122-.031-.175-.046a1.22,1.22,0,0,1-.879-1.111c-.007-.141,0-.283,0-.424a1.227,1.227,0,0,1,.953-1.222l.087-.019c.039-.141.049-2.44.012-2.755-.041-.012-.086-.027-.132-.039a1.214,1.214,0,0,1-.914-1.1,4.137,4.137,0,0,1,0-.589,1.214,1.214,0,0,1,1.191-1.113,3.806,3.806,0,0,1,.57.011,1.227,1.227,0,0,1,1.07,1.219,3.207,3.207,0,0,1-.017.515,1.209,1.209,0,0,1-.9,1.053l-.148.042V258.9l.6.25,1.217-1a2.372,2.372,0,0,1-.041-1.069,1.21,1.21,0,0,1,1.193-.984,3.448,3.448,0,0,1,.642.033,1.2,1.2,0,0,1,.973,1.163,3.263,3.263,0,0,1-.033.679,1.2,1.2,0,0,1-1.188.964c-.092,0-.185,0-.276,0a1.288,1.288,0,0,1-.866-.257,15.7,15.7,0,0,0-1.25.972,2.576,2.576,0,0,1,.014,1.333l1.21.94.144-.089a1.135,1.135,0,0,1,.557-.173c.178,0,.356-.01.534,0a1.22,1.22,0,0,1,1.156,1.19c0,.153,0,.308,0,.461a1.2,1.2,0,0,1-1.022,1.158,3.007,3.007,0,0,1-.788,0,1.2,1.2,0,0,1-1.025-1.135,3.722,3.722,0,0,1,0-.461c.01-.146.04-.29.065-.458l-1.182-.922-.628.275v2.721c.038.014.066.026.094.034a1.2,1.2,0,0,1,.962,1.157,2.569,2.569,0,0,1-.038.714,1.185,1.185,0,0,1-1.082.931,3.022,3.022,0,0,1-.68-.013,1.192,1.192,0,0,1-1.026-1.113,4.081,4.081,0,0,1,0-.57,1.2,1.2,0,0,1,.917-1.1l.135-.038Z" transform="translate(-294.922 -253.324)" fill="#017cfc"/>
        <path id="Path_28" data-name="Path 28" d="M317.789,267.093a4.017,4.017,0,0,1-.052.474,1.2,1.2,0,0,1-1.079.933,3.95,3.95,0,0,1-.608,0,1.205,1.205,0,0,1-1.106-1.079,3.032,3.032,0,0,1,.006-.7,1.217,1.217,0,0,1,1.211-1.054,3.781,3.781,0,0,1,.5.012,1.22,1.22,0,0,1,1.117,1.208c0,.067,0,.135,0,.2Z" transform="translate(-303.109 -260.083)" fill="#017cfc"/>
        <path id="Path_29" data-name="Path 29" d="M296.665,261.578a.854.854,0,1,1-.848-.857A.842.842,0,0,1,296.665,261.578Z" transform="translate(-292.173 -257.375)" fill="#017cfc"/>
        <path id="Path_30" data-name="Path 30" d="M295.823,273.4a.848.848,0,1,1-.865.841A.84.84,0,0,1,295.823,273.4Z" transform="translate(-292.173 -264.316)" fill="#017cfc"/>
        <path id="Path_31" data-name="Path 31" d="M288.8,268a.685.685,0,1,1,.68.675A.674.674,0,0,1,288.8,268Z" transform="translate(-288.802 -260.988)" fill="#017cfc"/>
        <path id="Path_32" data-name="Path 32" d="M306.613,276.744l.178.26-.951.785-.2-.237Z" transform="translate(-298.02 -266.15)" fill="#017cfc"/>
        <path id="Path_33" data-name="Path 33" d="M305.7,258.753l.193-.245.924.761-.177.26Z" transform="translate(-298.056 -256.163)" fill="#017cfc"/>
        <path id="Path_34" data-name="Path 34" d="M313.532,264.821l.775.639-.191.249-.791-.653Z" transform="translate(-302.232 -259.62)" fill="#017cfc"/>
        <path id="Path_35" data-name="Path 35" d="M314.1,270.783l.19.25-.737.608-.213-.231Z" transform="translate(-302.242 -262.885)" fill="#017cfc"/>
      </g>
    </g>
  </g>
</svg>
