<svg xmlns="http://www.w3.org/2000/svg" width="12.966" height="16" viewBox="0 0 12.966 16">
  <g id="Group_7" data-name="Group 7" transform="translate(-1352.374 -1341.952)">
    <g id="Group_5" data-name="Group 5" transform="translate(1352.374 1347.687)">
      <path id="Path_3" data-name="Path 3" d="M1364.012,1360.559a.039.039,0,0,1,.039.039v7.608a.039.039,0,0,1-.039.039H1353.7a.039.039,0,0,1-.039-.039V1360.6a.039.039,0,0,1,.039-.039h10.309m0-1.289H1353.7a1.328,1.328,0,0,0-1.328,1.328v7.608a1.329,1.329,0,0,0,1.328,1.328h10.309a1.329,1.329,0,0,0,1.328-1.328V1360.6a1.328,1.328,0,0,0-1.328-1.328Z" transform="translate(-1352.374 -1359.27)" fill="#017cfd"/>
    </g>
    <g id="Group_6" data-name="Group 6" transform="translate(1354.261 1341.952)">
      <path id="Path_4" data-name="Path 4" d="M1359.3,1348.567h-1.289v-2.02a4.6,4.6,0,0,1,9.191,0h-1.289a3.306,3.306,0,0,0-6.613,0Z" transform="translate(-1358.015 -1341.952)" fill="#017cfd"/>
    </g>
  </g>
</svg>
