<svg xmlns="http://www.w3.org/2000/svg" viewBox="0 0 360.52 102.25"><defs><style>.cls-1{fill:#00a29c;}.cls-2{fill:#f6ab3b;}.cls-3{fill:#00a39d;}.cls-4{fill:#01a39d;}.cls-5{fill:#00a29d;}.cls-6{fill:#02a39d;}</style></defs><g id="Layer_2" data-name="Layer 2"><g id="Layer_1-2" data-name="Layer 1"><path class="cls-1" d="M48.84,67.1a25,25,0,0,0-6.68-2.69,1.5,1.5,0,0,1,.16-.23c.51-.22,1-.43,1.53-.67a17.51,17.51,0,0,0,8.3-7.14,16,16,0,0,0,1.63-10.09c-.64-5.4-3.07-9.67-7.86-12.45-5.09-2.95-10.7-3.94-16.45-4-9.43-.14-18.86,0-28.29-.09C.22,29.7,0,30,0,30.9q0,34.7,0,69.39c0,1,.32,1.22,1.28,1.22,9.11,0,18.22,0,27.33,0a41.59,41.59,0,0,0,8.1-.73c10.95-2.2,18.53-9.39,18.91-20.17C55.81,74.88,53.93,70.17,48.84,67.1ZM16.74,50.86c0-2.55,0-5.11,0-7.66,0-.45-.16-1,.64-1,4,.1,8.07-.2,12.1.17,6.34.57,8.27,4.22,7.64,10.32-.41,4-2.78,6.1-6.89,6.78a64.64,64.64,0,0,1-9.33.34c-1.08,0-2.16,0-3.23,0-.75,0-1-.23-.95-1C16.77,56.22,16.74,53.54,16.74,50.86ZM39.05,80.75c-.43,5.48-4.19,7.64-8.43,8s-8.71.06-13.06.14c-.76,0-.83-.36-.82-1,0-2.68,0-5.35,0-8s0-5.27,0-7.9c0-.62.1-1,.84-.94,4.51.11,9-.19,13.53.19a12.52,12.52,0,0,1,2.12.36C37.68,72.76,39.47,75.47,39.05,80.75Z"/><path class="cls-1" d="M100.71,61.8a78.07,78.07,0,0,0-12.64-4.71,23.06,23.06,0,0,1-6.53-2.91,5.83,5.83,0,0,1-2.62-3.44,6.75,6.75,0,0,1,4.48-8,15,15,0,0,1,7.69-.4c3,.58,5.65,2.13,8.31,3.57s4.88.9,6.41-1.88c1-1.88,2-3.79,3-5.69s1-1.89-.7-3.17c-6-4.42-12.86-6.2-20.23-6.24a30.37,30.37,0,0,0-7.72.85C69.72,32.4,63,40.71,63.15,51c.11,8.55,3.89,14.7,11.92,18a92.8,92.8,0,0,0,9.76,3.21,23.86,23.86,0,0,1,7.92,3.52c3.69,2.75,2.77,10.31-1.49,12.12a15.81,15.81,0,0,1-11.9.08,44.83,44.83,0,0,1-7.56-4.08c-2.66-1.58-5.14-.95-6.8,1.65Q63.58,87.72,62.18,90c-2,3.1-2,3.16,1.1,5.3a37.37,37.37,0,0,0,27.12,6.62,23.42,23.42,0,0,0,13.51-6.4c5.25-5.14,7.21-11.52,6.79-18.73C110.29,69.83,106.81,64.94,100.71,61.8Z"/><path class="cls-1" d="M137.56,45.37a18.29,18.29,0,0,0-16-17.07c-1.1-.17-1.31,0-1.31,1.11,0,11.79,0,23.57,0,35.36s0,23.81,0,35.71c0,1,.23,1.28,1.24,1.27,5,0,9.91-.06,14.87,0,1.1,0,1.37-.28,1.37-1.38,0-17.29,0-34.59,0-51.89C137.68,47.44,137.64,46.4,137.56,45.37Z"/><path class="cls-2" d="M165.53,27.12c-6.11-7.22-7.17-15-3.06-23.38C154,7.47,146.34,6.25,139.32,0a19.8,19.8,0,0,1-2.09,12.06,20.18,20.18,0,0,1-8.65,8.48c8.76,2.19,14,7.57,16,16.41C149.48,29.21,156.42,26,165.53,27.12Z"/><path class="cls-1" d="M199.78,81.11c-2.35,0-4.71,0-7.06,0-.8,0-1,.23-1,1,0,3.07,0,6.15,0,9.22s0,6.22,0,9.33c0,.86.25,1.07,1.08,1,2.43,0,4.87,0,7.3,0a9.42,9.42,0,0,0,2.48-.37c4.66-1.28,7.27-5.21,7.07-10.6A9.64,9.64,0,0,0,199.78,81.11Zm6.67,12.8c-.83,3.49-3.2,5.38-6.88,5.48-1.32,0-2.64,0-4,0-.77,0-1-.2-1-1,0-2.36,0-4.72,0-7.07s0-4.56,0-6.83c0-.81.15-1.15,1-1.1,1.47.08,3,0,4.43.06a6.54,6.54,0,0,1,6.24,4.88A10.7,10.7,0,0,1,206.45,93.91Z"/><path class="cls-3" d="M176.32,69.55c.31-2.74-.82-4.32-4-5.48,2.42-1.5,3.17-2.42,3.34-4,.35-3.22-1.55-5.41-5.05-5.84-2.55-.32-5.11-.11-7.66-.2-.84,0-1.08.23-1.08,1.07,0,4,0,8.06,0,12.09v6.58c0,.44-.08.9.62.89,2.76,0,5.52.1,8.26-.11A5.72,5.72,0,0,0,176.32,69.55Zm-11.46-13c.65-.63,2-.15,3.12-.18a10.68,10.68,0,0,1,1.79.06c2,.27,2.95,1.31,3,3.09a3.23,3.23,0,0,1-2.8,3.58,24.56,24.56,0,0,1-4.77.21c-.49,0-.61-.24-.6-.67,0-1,0-1.91,0-3.07C164.73,58.65,164.14,57.22,164.86,56.53Zm.32,15.87c-.53,0-.56-.32-.56-.71,0-1,0-1.91,0-2.87s0-1.67,0-2.51.13-1.1,1-1a36.62,36.62,0,0,1,5.13.2,3.09,3.09,0,0,1,2.79,3.19,3.23,3.23,0,0,1-2.72,3.52C168.93,72.61,167,72.33,165.18,72.4Z"/><path class="cls-1" d="M229.25,83.42a10.15,10.15,0,0,0-11.19-1.66,9.29,9.29,0,0,0-5.86,8.77c0,3.75.75,6.3,2.72,8.39a10.65,10.65,0,0,0,14.78.1C233.64,94.9,233.45,87.07,229.25,83.42ZM224,99.28c-5.34,1-9.19-2.51-8.95-8.15.16-3.87,1.81-6.5,4.8-7.39,4.61-1.37,9.69.88,9.69,7.66C229.58,95.66,227.48,98.65,224,99.28Z"/><path class="cls-3" d="M186.87,82.62c0-1,0-1.56-1.33-1.57s-1.27.59-1.26,1.51c0,4.63,0,9.26,0,14.24-.48-.59-.75-.91-1-1.25-3.39-4.4-6.76-8.8-10.15-13.19a6.85,6.85,0,0,0-.87-1c-.54-.48-1.22-.28-1.84-.22s-.31.57-.31.88c0,6.27,0,12.54,0,18.81,0,1.12.67.83,1.24.84s1.26.25,1.24-.86c-.06-4.23,0-8.46,0-12.7V86.27c.42,0,.5.23.63.4,2.51,3.25,5,6.52,7.52,9.77,1.19,1.55,2.4,3.09,3.58,4.65a2,2,0,0,0,2.3.52c.59-.16.26-.91.27-1.38C186.86,94.36,186.83,88.49,186.87,82.62Z"/><path class="cls-4" d="M216.22,74.58c.71-.17.35-1,.35-1.44,0-6,0-12,0-18,0-.83-.13-1.17-1.09-1.19-1.17,0-1.71.23-1.51,1.49a10.81,10.81,0,0,1,0,1.8V69.72l-.7-.85q-5.22-6.8-10.44-13.57a5.88,5.88,0,0,0-.87-1,2.35,2.35,0,0,0-2-.23c-.34,0-.22.46-.22.72q0,9.53,0,19c0,.27-.12.69.2.73a5.48,5.48,0,0,0,2,0c.52-.13.26-.76.26-1.17,0-4.73,0-9.46,0-14.4.29.31.46.45.6.63q3.76,4.88,7.51,9.77c1.17,1.52,2.37,3,3.5,4.56A2,2,0,0,0,216.22,74.58Z"/><path class="cls-1" d="M253,81.91c0-1.32-1-.66-1.56-.79s-1,.11-1,.89c0,3.51,0,7,0,10.54v4.24c-.41-.49-.66-.78-.9-1.08L239.26,82.33c-.22-.28-.44-.57-.68-.83a1.91,1.91,0,0,0-2-.32c-.57.13-.29.82-.29,1.26,0,5.94,0,11.89,0,17.84,0,1,0,1.46,1.29,1.46s1.22-.5,1.21-1.4c0-4.7,0-9.4,0-14.45l11.14,14.49a7.47,7.47,0,0,0,.85,1c.57.54,1.29.3,1.95.26.37,0,.27-.43.27-.68C253,94.61,252.94,88.26,253,81.91Z"/><path class="cls-5" d="M298.3,74.64a1.29,1.29,0,0,1,.48,0c1,.16,1.39-.13,1.34-1.26-.11-2.15,0-4.31,0-6.47,0-.32-.15-.7.4-.84A3.23,3.23,0,0,1,304,67.29c1.58,2.16,3.16,4.33,4.72,6.49.31.43.61.85,1.21.85h2.67l-6.66-9,.44-.14c3.21-1.17,4.67-3.44,4.29-6.6-.32-2.66-2.37-4.31-5.69-4.67-2.23-.24-4.47-.07-6.7-.16-.8,0-1,.22-1,1q0,9.29,0,18.57C297.23,74.44,297.47,74.77,298.3,74.64Zm1.79-14.51V57c0-.31-.06-.69.44-.67a20.08,20.08,0,0,1,4.77.24,3.08,3.08,0,0,1,2.53,2.68,3.68,3.68,0,0,1-1.55,3.88c-1.8,1.18-3.85.83-5.82.84-.49,0-.36-.45-.37-.74C300.08,62.21,300.09,61.17,300.09,60.13Z"/><path class="cls-5" d="M360.49,65.11c0-3.31,0-6.63,0-9.94,0-.83-.12-1.32-1.08-1.16a2.49,2.49,0,0,1-.72,0c-.84-.13-1.09.19-1.07,1,.06,2.39,0,4.79,0,7.18,0,.8-.23,1-1,1-3,0-6-.06-9,0-1,0-1.1-.33-1.08-1.17,0-2.39,0-4.79,0-7.18,0-.66-.16-1-.86-.89a3.43,3.43,0,0,1-1,0c-.87-.12-1.06.27-1.05,1.08,0,3.07,0,6.15,0,9.22s0,6.23,0,9.34c0,.78.21,1.11,1,1a2.89,2.89,0,0,1,.83,0c.89.15,1-.27,1-1.07-.05-2.43,0-4.87,0-7.3,0-.79.21-1,1-1,3,0,6,.06,9,0,1,0,1.11.32,1.09,1.16-.05,2.44,0,4.87,0,7.31,0,.75.23,1,.95.91a2,2,0,0,1,.59,0c1,.16,1.39-.16,1.35-1.27C360.42,70.62,360.49,67.86,360.49,65.11Z"/><path class="cls-1" d="M286.6,54.82c-.46-1.17-1.34-.71-2.09-.79s-1.18,0-1.48.79c-.83,2.28-1.77,4.52-2.67,6.78q-2.43,6-4.82,12.1c-.11.27-.56.62-.07.9a2.54,2.54,0,0,0,3-1.09c.46-1.14.94-2.29,1.33-3.46a1.23,1.23,0,0,1,1.44-1c1.15.09,2.31,0,3.47,0h.48c1.36,0,3-.41,4,.19s1.16,2.42,1.69,3.7c.72,1.74.69,1.71,2.61,1.71.87,0,.9-.23.6-1C291.58,67.42,289.06,61.13,286.6,54.82Zm-5.41,12.09a1.58,1.58,0,0,1,0-.4c1.18-3.08,2.37-6.16,3.61-9.35,1.26,3.29,2.48,6.47,3.73,9.75Z"/><path class="cls-1" d="M333.4,54.89c-.39-1-1.06-.89-1.81-.87s-1.41-.2-1.81.84c-1.53,4.06-3.19,8.08-4.8,12.11-1,2.51-2,5-3,7.54,2.68.39,2.82.31,3.72-2,.35-.89.71-1.78,1-2.68a.93.93,0,0,1,1-.76c2.56,0,5.12,0,7.68,0a1,1,0,0,1,1.06.71c.37,1.09.92,2.13,1.22,3.24a2,2,0,0,0,2.53,1.69c.86-.07,1-.2.67-1C338.35,67.41,335.84,61.16,333.4,54.89ZM328.51,67c-.62,0-.63-.22-.43-.72,1.17-3,2.31-6,3.5-9.11L335.34,67C333,67,330.74,67,328.51,67Z"/><path class="cls-1" d="M307.63,81.84c-.45-1.15-1.3-.63-2-.71s-1.18-.13-1.5.73c-1.13,3-2.38,6-3.58,9l-4.33,10.84a7.57,7.57,0,0,1,1.07,0,2,2,0,0,0,2.54-1.7c.3-1,.8-2,1.13-3a1,1,0,0,1,1.2-.85q3.72.06,7.43,0c.66,0,1,.16,1.22.81.3.95.7,1.87,1.06,2.8.82,2.16,1.18,2.35,3.53,1.78a.85.85,0,0,0,0-.23C312.8,94.8,310.18,88.33,307.63,81.84ZM302.14,94l3.75-9.77c1.27,3.32,2.49,6.49,3.74,9.77Z"/><path class="cls-1" d="M192.6,69.9c.46,1.28,1,2.53,1.46,3.79.19.5.44,1,1.08.94h2a1.56,1.56,0,0,0-.24-1.12c-2.46-6.18-4.95-12.34-7.38-18.54a1.35,1.35,0,0,0-1.62-1c-.82.07-1.6-.22-2.06,1-2.12,5.53-4.38,11-6.58,16.52-.4,1-.78,2-1.22,3.12a8.66,8.66,0,0,1,1,0A2,2,0,0,0,181.59,73c.3-1.07.83-2.07,1.18-3.12a1,1,0,0,1,1.11-.8c2.51,0,5,0,7.54,0A1.06,1.06,0,0,1,192.6,69.9ZM190.4,67c-2.1,0-4.21,0-6.51,0,1.31-3.38,2.53-6.55,3.78-9.81,1.16,3,2.25,6,3.42,8.86C191.43,66.85,191.23,67,190.4,67Z"/><path class="cls-1" d="M238.25,74.52c-3-3.48-5.8-6.85-8.7-10.18-.43-.48-.43-.61,0-1.06,1.22-1.26,2.37-2.59,3.53-3.91,1.52-1.71,3-3.44,4.6-5.22A4.24,4.24,0,0,0,233,55.78c-1.67,2.14-3.56,4.1-5.37,6.12a4.78,4.78,0,0,1-1.05,1c-1.12.63-1.89.18-1.89-1.07,0-2.23-.08-4.47,0-6.7.06-1.41-.84-1-1.57-1.07s-1.29,0-1.27,1.09c.07,4.51,0,9,0,13.54v4.19c0,1.85,0,1.81,1.84,1.81.73,0,1-.21.95-.94,0-2.32,0-4.63,0-6.95,0-.49-.28-1.22.23-1.42a2.4,2.4,0,0,1,2.18.23,4.62,4.62,0,0,1,.76.77c1.94,2.22,4,4.36,5.77,6.71C234.84,74.7,236.31,74.82,238.25,74.52Z"/><path class="cls-3" d="M269.6,99.4c-2.63.08-5.27,0-7.91,0-.71,0-1-.17-.95-.93.06-1.72.05-3.43,0-5.15,0-.76.23-1,.95-.93,2.08,0,4.16,0,6.23,0,1.1,0,.81-.7.86-1.28s0-1.05-.86-1c-2.07.06-4.15,0-6.23,0-.7,0-1-.13-.95-.91.06-1.64.06-3.28,0-4.91,0-.75.2-.94.93-.93,2.68,0,5.36,0,8,0,.89,0,1-.36.93-1s.31-1.37-.89-1.35c-3.64.06-7.27,0-10.91,0-.77,0-.93.27-.93,1,0,3.12,0,6.23,0,9.35s0,6.15,0,9.22c0,.83.2,1.09,1.05,1.08,3.56,0,7.11,0,10.67,0,.88,0,1.06-.29,1-1.09S270.65,99.37,269.6,99.4Z"/><path class="cls-1" d="M253.62,63.11c-1.12-.41-2.27-.76-3.35-1.26a2.62,2.62,0,0,1-1.76-2.94,3,3,0,0,1,2.5-2.56,5.54,5.54,0,0,1,4.74,1c.63.44,1.16.45,1.56-.32s.74-1.16-.17-1.77a9.1,9.1,0,0,0-4.85-1.49,6,6,0,0,0-6.37,4.54c-.62,3.07.75,5.19,4.12,6.45a30.44,30.44,0,0,1,3.82,1.36,3,3,0,0,1,1.48,4.12,3.63,3.63,0,0,1-3.19,2.18,6.43,6.43,0,0,1-5-1.64c-.61-.5-1.15-.48-1.58.24s-1,1.05,0,1.76a9.1,9.1,0,0,0,5.75,2c3.71,0,6.26-1.89,6.86-5.18S257.52,64.54,253.62,63.11Z"/><path class="cls-1" d="M281.55,90.16a20.26,20.26,0,0,1-3.67-1.44,2.8,2.8,0,0,1,.15-5,4.71,4.71,0,0,1,3.26-.41,7.45,7.45,0,0,1,2.59,1.19c.5.32,1,.34,1.32-.27s.91-1,.2-1.67c-2.34-2.27-7.43-2.27-9.87-.07s-2.73,7.37,1.61,9c1.49.55,3,1,4.49,1.62a2.74,2.74,0,0,1,2,2.6,3.56,3.56,0,0,1-3.35,3.8,6.37,6.37,0,0,1-5-1.59c-.64-.52-1.18-.56-1.69.2s-.78,1.21.11,1.87a10.07,10.07,0,0,0,6.52,1.92,6,6,0,0,0,6-5.11C286.74,93.37,285.49,91.57,281.55,90.16Z"/><path class="cls-1" d="M277.29,54.12c-2.88-.3-2.94-.28-4.25,2-1.57,2.67-3.12,5.35-4.67,8-1.65-2.81-3.37-5.62-4.95-8.5A2.48,2.48,0,0,0,260.57,54c-.31,0-.77-.05-.9.12-.27.34.16.63.33.92,2.14,3.54,4.29,7.09,6.46,10.62a3.18,3.18,0,0,1,.51,1.79c0,2.08,0,4.16,0,6.23,0,.72.16,1,.93.94a4.79,4.79,0,0,1,1.07,0c.65.07.82-.23.8-.83,0-1.12.1-2.25,0-3.35a9.54,9.54,0,0,1,2-7.25,30.13,30.13,0,0,0,1.82-2.94Z"/><path class="cls-4" d="M317.79,54a2.17,2.17,0,0,1-.72,0c-.89-.14-1.15.21-1.14,1.12.06,3.06,0,6.13,0,9.2V72.7c0,2,0,2,2,2,.73,0,1-.18.94-.93-.05-1.91,0-3.83,0-5.74,0-4.3,0-8.61,0-12.91C318.86,54.24,318.63,53.89,317.79,54Z"/><path class="cls-4" d="M291.7,81.11a1,1,0,0,1-.35,0c-.84-.14-1.09.21-1.07,1,0,3.07,0,6.14,0,9.21s0,6.29,0,9.44c0,.67.17,1,.86.88a3.85,3.85,0,0,1,1,0c.84.13,1.08-.19,1-1-.06-2.23,0-4.46,0-6.69,0-3.83-.05-7.66,0-11.48C293.2,81.27,292.81,80.91,291.7,81.11Z"/><path class="cls-6" d="M163.22,81.09c-.94,0-1.42.06-1.41,1.24.07,5.87,0,11.75,0,17.62,0,1.76,0,1.71,1.79,1.76.9,0,1-.32,1-1.1,0-3.08,0-6.15,0-9.23s-.07-6.07,0-9.1C164.71,81,164.05,81.13,163.22,81.09Z"/></g></g></svg>